<svg width="50" height="50" viewBox="0 0 50 50" fill="none" xmlns="http://www.w3.org/2000/svg">
<path d="M44.6669 9.32098L44.6667 9.32123L20.8776 32.9172C19.9014 33.8855 18.3265 33.8837 17.3525 32.9132L5.4681 21.072C4.95123 20.5198 4.23649 20.1939 3.47981 20.165C2.7198 20.136 1.97901 20.409 1.42047 20.9244C0.861871 21.4399 0.531303 22.1558 0.50211 22.9147C0.472917 23.6736 0.747527 24.4126 1.26498 24.9693L1.27173 24.9766L1.27876 24.9835L16.6449 40.2531C18.0101 41.6096 20.2144 41.6095 21.5794 40.2527L48.6611 13.334C48.6613 13.3338 48.6615 13.3336 48.6617 13.3334C48.9271 13.071 49.1379 12.7587 49.2818 12.4145C49.4258 12.0701 49.5 11.7005 49.5 11.3273C49.5 10.954 49.4258 10.5845 49.2818 10.2401C49.1379 9.89583 48.927 9.58348 48.6615 9.32098C48.1304 8.79494 47.4123 8.5 46.6642 8.5C45.9161 8.5 45.1981 8.79494 44.6669 9.32098Z" fill="#0D87FF" stroke="#0D87FF"/>
</svg>
