<svg width="50" height="50" viewBox="0 0 50 50" fill="none" xmlns="http://www.w3.org/2000/svg">
<path d="M49.3816 21.2001L43.7928 19.5335C43.4064 18.1857 42.875 16.8837 42.2079 15.6502L44.9439 10.5335C45.0466 10.3404 45.0842 10.1193 45.0511 9.90317C45.0181 9.687 44.9161 9.48724 44.7604 9.33354L40.7732 5.33356C40.6193 5.17801 40.4194 5.07616 40.203 5.04314C39.9866 5.01011 39.7653 5.04767 39.572 5.15023L34.4837 7.86688C33.2368 7.16798 31.9164 6.60903 30.5465 6.20022L28.8782 0.683585C28.8077 0.48028 28.6743 0.304585 28.4975 0.181791C28.3206 0.0589961 28.1093 -0.00456538 27.8939 0.00025528H22.2551C22.0384 0.0012629 21.8278 0.0713125 21.6537 0.20021C21.4797 0.329107 21.3514 0.510124 21.2875 0.716918L19.6192 6.21689C18.2378 6.62352 16.9061 7.18251 15.6486 7.88355L10.6437 5.18356C10.4504 5.081 10.2291 5.04345 10.0128 5.07647C9.79637 5.1095 9.59641 5.21134 9.44256 5.36689L5.3886 9.31687C5.2329 9.47058 5.13095 9.67034 5.09789 9.88651C5.06483 10.1027 5.10242 10.3237 5.20509 10.5169L7.90773 15.5168C7.20714 16.7678 6.64762 18.0926 6.23943 19.4668L0.717368 21.1335C0.51037 21.1973 0.329175 21.3255 0.200151 21.4994C0.0711271 21.6733 0.00100861 21.8837 0 22.1001V27.7334C0.00100861 27.9499 0.0711271 28.1603 0.200151 28.3342C0.329175 28.5081 0.51037 28.6362 0.717368 28.7001L6.2728 30.3668C6.68544 31.7181 7.24487 33.0203 7.94109 34.2501L5.20509 39.4834C5.10242 39.6765 5.06483 39.8976 5.09789 40.1138C5.13095 40.3299 5.2329 40.5297 5.3886 40.6834L9.37583 44.6667C9.52968 44.8222 9.72964 44.9241 9.94602 44.9571C10.1624 44.9901 10.3837 44.9526 10.577 44.85L15.732 42.1C16.9515 42.7574 18.2378 43.2826 19.5691 43.6667L21.2374 49.2833C21.3013 49.4901 21.4297 49.6712 21.6037 49.8C21.7777 49.9289 21.9884 49.999 22.205 50H27.8439C28.0605 49.999 28.2712 49.9289 28.4452 49.8C28.6192 49.6712 28.7476 49.4901 28.8115 49.2833L30.4798 43.65C31.7997 43.264 33.0748 42.7388 34.2835 42.0834L39.4719 44.85C39.6652 44.9526 39.8865 44.9901 40.1029 44.9571C40.3193 44.9241 40.5192 44.8222 40.6731 44.6667L44.6603 40.6834C44.816 40.5297 44.918 40.3299 44.951 40.1138C44.9841 39.8976 44.9465 39.6765 44.8438 39.4834L42.0745 34.3167C42.7374 33.1046 43.2687 31.8251 43.6593 30.5001L49.2815 28.8334C49.4885 28.7696 49.6697 28.6414 49.7987 28.4675C49.9277 28.2937 49.9978 28.0832 49.9989 27.8668V22.1835C50.0087 21.9762 49.9548 21.7709 49.8445 21.5952C49.7342 21.4194 49.5726 21.2815 49.3816 21.2001ZM25.0745 34.1667C23.2597 34.1667 21.4857 33.6291 19.9768 32.6219C18.4679 31.6147 17.2918 30.183 16.5973 28.508C15.9028 26.8331 15.7211 24.99 16.0752 23.2118C16.4292 21.4337 17.3031 19.8003 18.5863 18.5183C19.8696 17.2364 21.5045 16.3633 23.2844 16.0096C25.0643 15.6559 26.9092 15.8375 28.5859 16.5313C30.2625 17.2251 31.6955 18.4 32.7038 19.9074C33.712 21.4149 34.2501 23.1871 34.2501 25.0001C34.2501 27.4313 33.2834 29.7628 31.5627 31.4819C29.8419 33.201 27.508 34.1667 25.0745 34.1667Z" fill="#0D87FF"/>
</svg>
