<svg width="68" height="78" viewBox="0 0 68 78" fill="none" xmlns="http://www.w3.org/2000/svg">
<g filter="url(#filter0_d_759_1358)">
<path d="M4 17.5L34.0343 0L64 17.5V52.5L34.0343 70L4 52.5V17.5Z" fill="#DEE8FF"/>
<path d="M30.4753 34.52C34.2253 34.94 36.1153 36.44 36.1153 39.02C36.1153 40.28 35.7553 41.3 35.0353 42.02C34.3153 42.74 33.3853 43.1 32.3053 43.1C31.5853 43.1 31.0453 42.95 30.6253 42.62C30.2053 42.29 29.9053 41.93 29.7553 41.51C29.6053 41.09 29.3653 40.73 29.0653 40.4C28.7353 40.07 28.3153 39.89 27.8053 39.89C27.2353 39.89 26.7853 40.07 26.4853 40.37C26.1553 40.7 26.0053 41.12 26.0053 41.6C26.0053 42.26 26.3053 42.8 26.9053 43.25C27.5053 43.7 28.1953 44 29.0053 44.18C29.7853 44.36 30.6253 44.45 31.4953 44.45C32.8753 44.45 34.2853 44.24 35.6953 43.76C37.1053 43.28 38.3353 42.53 39.4153 41.45C40.4653 40.4 41.0053 39.17 41.0053 37.73C41.0053 36.23 40.4353 35 39.2953 33.98C38.1553 32.99 36.6253 32.39 34.7053 32.15C36.5053 31.49 37.7653 30.74 38.5453 29.9C39.2953 29.06 39.6853 28.13 39.6853 27.08C39.6853 25.7 39.1153 24.65 38.0053 23.87C36.8953 23.12 35.4853 22.73 33.8053 22.73C30.7153 22.73 28.1353 24.23 26.0953 27.17L26.8153 27.89C27.9853 26.57 29.5453 25.91 31.5253 25.91C33.8053 25.91 34.9753 26.78 34.9753 28.49C34.9753 29.45 34.5253 30.32 33.6853 31.13C33.2353 31.55 32.0653 32.36 30.2053 33.59L30.4753 34.52Z" fill="#0D87FF"/>
</g>
<defs>
<filter id="filter0_d_759_1358" x="0" y="0" width="68" height="78" filterUnits="userSpaceOnUse" color-interpolation-filters="sRGB">
<feFlood flood-opacity="0" result="BackgroundImageFix"/>
<feColorMatrix in="SourceAlpha" type="matrix" values="0 0 0 0 0 0 0 0 0 0 0 0 0 0 0 0 0 0 127 0" result="hardAlpha"/>
<feOffset dy="4"/>
<feGaussianBlur stdDeviation="2"/>
<feComposite in2="hardAlpha" operator="out"/>
<feColorMatrix type="matrix" values="0 0 0 0 0 0 0 0 0 0 0 0 0 0 0 0 0 0 0.25 0"/>
<feBlend mode="normal" in2="BackgroundImageFix" result="effect1_dropShadow_759_1358"/>
<feBlend mode="normal" in="SourceGraphic" in2="effect1_dropShadow_759_1358" result="shape"/>
</filter>
</defs>
</svg>
