<svg width="38" height="50" viewBox="0 0 38 50" fill="none" xmlns="http://www.w3.org/2000/svg">
<path d="M14.25 6.4449e-07H23.75C24.7327 -0.00050775 25.6914 0.299774 26.4939 0.859463C27.2964 1.41915 27.9033 2.21069 28.2308 3.125H33.25C34.5098 3.125 35.718 3.61886 36.6088 4.49794C37.4996 5.37701 38 6.5693 38 7.8125V45.3125C38 46.5557 37.4996 47.748 36.6088 48.6271C35.718 49.5061 34.5098 50 33.25 50H4.75C3.49022 50 2.28204 49.5061 1.39124 48.6271C0.500444 47.748 0 46.5557 0 45.3125V7.8125C0 6.5693 0.500444 5.37701 1.39124 4.49794C2.28204 3.61886 3.49022 3.125 4.75 3.125H9.76917C10.0967 2.21069 10.7036 1.41915 11.5061 0.859463C12.3086 0.299774 13.2673 -0.00050775 14.25 6.4449e-07ZM12.6667 4.6875C12.6667 5.1019 12.8335 5.49933 13.1304 5.79235C13.4273 6.08538 13.8301 6.25 14.25 6.25H23.75C24.1699 6.25 24.5727 6.08538 24.8696 5.79235C25.1665 5.49933 25.3333 5.1019 25.3333 4.6875C25.3333 4.2731 25.1665 3.87567 24.8696 3.58265C24.5727 3.28962 24.1699 3.125 23.75 3.125H14.25C13.8301 3.125 13.4273 3.28962 13.1304 3.58265C12.8335 3.87567 12.6667 4.2731 12.6667 4.6875ZM27.7083 22.6562C28.3382 22.6562 28.9423 22.4093 29.3877 21.9698C29.8331 21.5302 30.0833 20.9341 30.0833 20.3125C30.0833 19.6909 29.8331 19.0948 29.3877 18.6552C28.9423 18.2157 28.3382 17.9688 27.7083 17.9688C27.0784 17.9688 26.4744 18.2157 26.029 18.6552C25.5836 19.0948 25.3333 19.6909 25.3333 20.3125C25.3333 20.9341 25.5836 21.5302 26.029 21.9698C26.4744 22.4093 27.0784 22.6562 27.7083 22.6562ZM27.7083 32.0312C28.3382 32.0312 28.9423 31.7843 29.3877 31.3448C29.8331 30.9052 30.0833 30.3091 30.0833 29.6875C30.0833 29.0659 29.8331 28.4698 29.3877 28.0302C28.9423 27.5907 28.3382 27.3438 27.7083 27.3438C27.0784 27.3438 26.4744 27.5907 26.029 28.0302C25.5836 28.4698 25.3333 29.0659 25.3333 29.6875C25.3333 30.3091 25.5836 30.9052 26.029 31.3448C26.4744 31.7843 27.0784 32.0312 27.7083 32.0312ZM25.3333 39.0625C25.3333 39.6841 25.5836 40.2802 26.029 40.7198C26.4744 41.1593 27.0784 41.4062 27.7083 41.4062C28.3382 41.4062 28.9423 41.1593 29.3877 40.7198C29.8331 40.2802 30.0833 39.6841 30.0833 39.0625C30.0833 38.4409 29.8331 37.8448 29.3877 37.4052C28.9423 36.9657 28.3382 36.7188 27.7083 36.7188C27.0784 36.7188 26.4744 36.9657 26.029 37.4052C25.5836 37.8448 25.3333 38.4409 25.3333 39.0625ZM22.1667 20.3125C22.1667 19.8981 21.9999 19.5007 21.7029 19.2076C21.406 18.9146 21.0033 18.75 20.5833 18.75H9.5C9.08007 18.75 8.67735 18.9146 8.38041 19.2076C8.08348 19.5007 7.91667 19.8981 7.91667 20.3125C7.91667 20.7269 8.08348 21.1243 8.38041 21.4174C8.67735 21.7104 9.08007 21.875 9.5 21.875H20.5833C21.0033 21.875 21.406 21.7104 21.7029 21.4174C21.9999 21.1243 22.1667 20.7269 22.1667 20.3125ZM22.1667 29.6875C22.1667 29.2731 21.9999 28.8757 21.7029 28.5826C21.406 28.2896 21.0033 28.125 20.5833 28.125H9.5C9.08007 28.125 8.67735 28.2896 8.38041 28.5826C8.08348 28.8757 7.91667 29.2731 7.91667 29.6875C7.91667 30.1019 8.08348 30.4993 8.38041 30.7924C8.67735 31.0854 9.08007 31.25 9.5 31.25H20.5833C21.0033 31.25 21.406 31.0854 21.7029 30.7924C21.9999 30.4993 22.1667 30.1019 22.1667 29.6875ZM22.1667 39.0625C22.1667 38.6481 21.9999 38.2507 21.7029 37.9576C21.406 37.6646 21.0033 37.5 20.5833 37.5H9.5C9.08007 37.5 8.67735 37.6646 8.38041 37.9576C8.08348 38.2507 7.91667 38.6481 7.91667 39.0625C7.91667 39.4769 8.08348 39.8743 8.38041 40.1674C8.67735 40.4604 9.08007 40.625 9.5 40.625H20.5833C21.0033 40.625 21.406 40.4604 21.7029 40.1674C21.9999 39.8743 22.1667 39.4769 22.1667 39.0625Z" fill="#0D87FF"/>
</svg>
