<svg width="50" height="50" viewBox="0 0 50 50" fill="none" xmlns="http://www.w3.org/2000/svg">
<path d="M48 0H2C0.89375 0 0 0.89375 0 2V48C0 49.1063 0.89375 50 2 50H48C49.1063 50 50 49.1063 50 48V2C50 0.89375 49.1063 0 48 0ZM20.5125 40.8125H17.3375C17.2 40.8125 17.0562 40.7437 16.9688 40.6312L14.75 37.9125L12.5312 40.6312C12.488 40.6879 12.4322 40.7338 12.3682 40.7652C12.3042 40.7967 12.2338 40.8128 12.1625 40.8125H8.9875C8.575 40.8125 8.35 40.3188 8.625 39.9938L12.5438 35.1937L8.71875 30.5125C8.45 30.1875 8.675 29.6937 9.0875 29.6937H12.2687C12.4062 29.6937 12.55 29.7625 12.6375 29.875L14.7625 32.475L16.8875 29.875C16.9813 29.7563 17.1125 29.6937 17.2563 29.6937H20.4312C20.8438 29.6937 21.0687 30.1875 20.8 30.5125L16.9688 35.1875L20.8875 39.9875C21.15 40.3187 20.925 40.8125 20.5125 40.8125ZM21 16.9375C21 17.075 20.9125 17.1875 20.8 17.1875H16.5V21.4813C16.5 21.6 16.3875 21.6875 16.25 21.6875H13.25C13.1125 21.6875 13 21.6 13 21.4875V17.1875H8.7C8.5875 17.1875 8.5 17.075 8.5 16.9375V13.9375C8.5 13.8 8.5875 13.6875 8.7 13.6875H13V9.3875C13 9.275 13.1125 9.1875 13.25 9.1875H16.25C16.3875 9.1875 16.5 9.275 16.5 9.3875V13.6875H20.7938C20.9125 13.6875 21 13.8 21 13.9375V16.9375ZM41.5 40C41.5 40.1375 41.4125 40.25 41.3 40.25H29.2C29.0875 40.25 29 40.1375 29 40V37C29 36.8625 29.0875 36.75 29.2 36.75H41.2938C41.4125 36.75 41.5 36.8625 41.5 37V40ZM41.5 33.5C41.5 33.6375 41.4125 33.75 41.3 33.75H29.2C29.0875 33.75 29 33.6375 29 33.5V30.5C29 30.3625 29.0875 30.25 29.2 30.25H41.2938C41.4125 30.25 41.5 30.3625 41.5 30.5V33.5ZM41.5 16.9375C41.5 17.075 41.4125 17.1875 41.3 17.1875H29.2C29.0875 17.1875 29 17.075 29 16.9375V13.9375C29 13.8 29.0875 13.6875 29.2 13.6875H41.2938C41.4125 13.6875 41.5 13.8 41.5 13.9375V16.9375Z" fill="#0D87FF"/>
</svg>
