<svg width="50" height="50" viewBox="0 0 50 50" fill="none" xmlns="http://www.w3.org/2000/svg">
<path d="M4.98254 22.1069L4.94152 22.3925H5.23H7.5C8.09674 22.3925 8.66903 22.6296 9.09099 23.0515C9.51295 23.4735 9.75 24.0458 9.75 24.6425V37.5C9.75 38.0967 9.51295 38.669 9.09099 39.091C8.66903 39.513 8.09674 39.75 7.5 39.75H5C2.36279 39.75 0.25 37.7623 0.25 35.3575V25C0.25 11.3531 11.3531 0.25 25 0.25C38.6469 0.25 49.75 11.3531 49.75 25V35.3575C49.75 37.7623 47.6372 39.75 45 39.75H44.75V40C44.75 45.3769 40.3769 49.75 35 49.75H20.25V42.75H29.75V45V45.25H30H35C37.8956 45.25 40.25 42.8956 40.25 40V24.6425C40.25 24.0458 40.4871 23.4735 40.909 23.0515C41.331 22.6296 41.9033 22.3925 42.5 22.3925H44.77H45.0585L45.0175 22.1069C43.6101 12.3112 35.1817 4.75 25 4.75C14.8183 4.75 6.38989 12.3112 4.98254 22.1069Z" fill="#0D87FF" stroke="white" stroke-width="0.5"/>
</svg>
