<svg width="60" height="70" viewBox="0 0 60 70" fill="none" xmlns="http://www.w3.org/2000/svg">
<path d="M0 17.5L30.0343 0L60 17.5V52.5L30.0343 70L0 52.5V17.5Z" fill="#DEE8FF"/>
<path d="M32.3853 22.76H31.5453C30.6453 23.21 29.3553 23.72 27.6453 24.32C25.9353 24.92 24.5853 25.31 23.5953 25.43V26.51H27.6753V40.85C27.6753 41.69 27.4053 42.2 26.8653 42.35C26.7153 42.41 25.7253 42.5 23.8953 42.62V44H36.1653V42.62C34.2153 42.47 33.2253 42.38 33.1953 42.35C32.6253 42.17 32.3553 41.69 32.3853 40.85V22.76Z" fill="#0D87FF"/>
</svg>
