<svg width="68" height="78" viewBox="0 0 68 78" fill="none" xmlns="http://www.w3.org/2000/svg">
<g filter="url(#filter0_d_759_1363)">
<path d="M4 17.5L34.0343 0L64 17.5V52.5L34.0343 70L4 52.5V17.5Z" fill="#DEE8FF"/>
<path d="M39.7153 27.17L40.8853 23.51L40.7953 23.21H28.9453L27.2053 34.34C27.9253 34.31 28.4353 34.28 28.7353 34.28C31.2553 34.28 33.0853 34.73 34.1653 35.57C35.2453 36.41 35.7853 37.61 35.7853 39.17C35.7853 40.43 35.4553 41.42 34.8553 42.08C34.2553 42.74 33.3853 43.07 32.3053 43.07C31.5253 43.07 30.9253 42.92 30.4753 42.59C29.9953 42.26 29.6953 41.9 29.5453 41.48C29.3653 41.09 29.1253 40.73 28.8253 40.4C28.4953 40.07 28.0753 39.89 27.5953 39.89C27.0253 39.89 26.5753 40.07 26.2753 40.4C25.9453 40.76 25.7953 41.15 25.7953 41.6C25.7953 42.53 26.3353 43.25 27.4753 43.73C28.6153 44.21 29.8753 44.45 31.2553 44.45C32.2753 44.45 33.2953 44.3 34.3753 44C35.4253 43.7 36.4153 43.25 37.3453 42.65C38.2453 42.08 38.9953 41.33 39.5953 40.37C40.1953 39.41 40.4953 38.36 40.4953 37.22C40.4953 35.33 39.6853 33.86 38.1253 32.78C36.5653 31.73 34.4353 31.19 31.7653 31.19C30.7753 31.19 29.9053 31.25 29.1253 31.34L29.7553 27.17H39.7153Z" fill="#0D87FF"/>
</g>
<defs>
<filter id="filter0_d_759_1363" x="0" y="0" width="68" height="78" filterUnits="userSpaceOnUse" color-interpolation-filters="sRGB">
<feFlood flood-opacity="0" result="BackgroundImageFix"/>
<feColorMatrix in="SourceAlpha" type="matrix" values="0 0 0 0 0 0 0 0 0 0 0 0 0 0 0 0 0 0 127 0" result="hardAlpha"/>
<feOffset dy="4"/>
<feGaussianBlur stdDeviation="2"/>
<feComposite in2="hardAlpha" operator="out"/>
<feColorMatrix type="matrix" values="0 0 0 0 0 0 0 0 0 0 0 0 0 0 0 0 0 0 0.25 0"/>
<feBlend mode="normal" in2="BackgroundImageFix" result="effect1_dropShadow_759_1363"/>
<feBlend mode="normal" in="SourceGraphic" in2="effect1_dropShadow_759_1363" result="shape"/>
</filter>
</defs>
</svg>
