<svg width="60" height="70" viewBox="0 0 60 70" fill="none" xmlns="http://www.w3.org/2000/svg">
<path d="M0 17.5L30.0343 0L60 17.5V52.5L30.0343 70L0 52.5V17.5Z" fill="#DEE8FF"/>
<path d="M37.0653 24.05L36.7953 22.82C35.8953 22.76 35.1753 22.76 34.5753 22.76C30.5553 22.91 27.3753 24.2 25.0053 26.63C22.6353 29.09 21.4653 32.15 21.4653 35.81C21.4653 38.54 22.1253 40.67 23.4453 42.2C24.7653 43.73 26.6253 44.48 29.0853 44.48C31.4853 44.48 33.5253 43.79 35.1753 42.35C36.7953 40.94 37.6353 39.11 37.6353 36.86C37.6353 35.06 37.0353 33.59 35.8353 32.45C34.6353 31.31 33.1353 30.74 31.3953 30.74C29.5953 30.74 28.0053 31.34 26.6253 32.48C27.5853 27.23 31.0653 24.41 37.0653 24.05ZM26.3253 36.05C26.3253 35.12 26.3553 34.31 26.4453 33.59C27.2553 33.23 28.0653 33.05 28.8453 33.05C30.0453 33.05 30.9753 33.5 31.6653 34.37C32.3553 35.27 32.7153 36.53 32.7153 38.18C32.7153 39.68 32.4153 40.88 31.8753 41.75C31.3353 42.65 30.5853 43.07 29.6853 43.07C28.5453 43.07 27.7053 42.44 27.1653 41.18C26.5953 39.92 26.3253 38.21 26.3253 36.05Z" fill="#0D87FF"/>
</svg>
