<svg width="68" height="78" viewBox="0 0 68 78" fill="none" xmlns="http://www.w3.org/2000/svg">
<g filter="url(#filter0_d_759_1355)">
<path d="M4 17.5L34.0343 0L64 17.5V52.5L34.0343 70L4 52.5V17.5Z" fill="#DEE8FF"/>
<path d="M41.1253 40.55L41.0353 40.25H30.1453C33.5053 37.55 35.9353 35.3 37.4353 33.5C38.9053 31.7 39.6553 29.9 39.6553 28.1C39.6553 26.45 39.0853 25.16 37.9753 24.2C36.8353 23.27 35.4553 22.79 33.8053 22.73C32.3653 22.73 31.0153 23.09 29.6953 23.87C28.3753 24.65 27.2653 25.85 26.3053 27.47L26.9053 28.16C28.1053 26.69 29.5753 25.94 31.2853 25.94C32.3653 25.94 33.2353 26.24 33.8353 26.84C34.4353 27.44 34.7653 28.25 34.7653 29.33C34.7653 32.75 31.7953 37.28 25.9153 42.95L26.1253 44H39.8653L41.1253 40.55Z" fill="#0D87FF"/>
</g>
<defs>
<filter id="filter0_d_759_1355" x="0" y="0" width="68" height="78" filterUnits="userSpaceOnUse" color-interpolation-filters="sRGB">
<feFlood flood-opacity="0" result="BackgroundImageFix"/>
<feColorMatrix in="SourceAlpha" type="matrix" values="0 0 0 0 0 0 0 0 0 0 0 0 0 0 0 0 0 0 127 0" result="hardAlpha"/>
<feOffset dy="4"/>
<feGaussianBlur stdDeviation="2"/>
<feComposite in2="hardAlpha" operator="out"/>
<feColorMatrix type="matrix" values="0 0 0 0 0 0 0 0 0 0 0 0 0 0 0 0 0 0 0.25 0"/>
<feBlend mode="normal" in2="BackgroundImageFix" result="effect1_dropShadow_759_1355"/>
<feBlend mode="normal" in="SourceGraphic" in2="effect1_dropShadow_759_1355" result="shape"/>
</filter>
</defs>
</svg>
